<?xml version="1.0" encoding="utf-8"?>
<!-- Generator: Adobe Illustrator 17.0.0, SVG Export Plug-In . SVG Version: 6.00 Build 0)  -->
<!DOCTYPE svg PUBLIC "-//W3C//DTD SVG 1.1//EN" "http://www.w3.org/Graphics/SVG/1.1/DTD/svg11.dtd">
<svg version="1.1" id="Layer_2" xmlns="http://www.w3.org/2000/svg" xmlns:xlink="http://www.w3.org/1999/xlink" x="0px" y="0px"
	 width="959px" height="221.592px" viewBox="0 0 959 221.592" enable-background="new 0 0 959 221.592" xml:space="preserve">
<polyline fill="none" stroke="#AA3631" stroke-width="6" stroke-linejoin="bevel" stroke-miterlimit="10" points="0,101 92,101 
	105.109,81.841 118.608,111.214 135.107,68.904 151.607,128.744 166.606,32.671 193.37,146.626 213.104,15.389 240.028,134 321,134 
	335.528,109.989 349.528,137.864 365.028,71.051 393.028,156.895 413.528,30.982 428.028,111 575,111 589.528,87.489 
	606.028,122.364 623.028,64.551 643.102,137.395 675.581,50.317 716.028,169.278 746.528,18.566 780.075,202.209 796.63,81.005 
	807.074,107.741 819.573,87.371 829.573,100 959,100 "/>
</svg>
